<svg width="97" height="60" viewBox="0 0 97 60" fill="none" xmlns="http://www.w3.org/2000/svg">
<path d="M15.69 59.14C21.95 59.14 28.62 57.57 32.77 53.27C36.72 50.2 39.51 50.07 40.84 50.27L37.26 59.21H80.31L80.17 58.09C80.0881 56.749 79.5803 55.4691 78.7206 54.4367C77.8609 53.4043 76.694 52.6733 75.39 52.35H70.03C71.5437 51.1282 72.6626 49.4863 73.2462 47.6307C73.8297 45.775 73.8519 43.7883 73.31 41.92C74.82 39.92 75.87 38.21 76.31 37.42C77.7386 37.3855 79.1582 37.1841 80.54 36.82C84.69 37.82 86.87 35.89 87.54 33.67L87.61 33.46H88.32C91.26 33.46 93.32 32.85 94.49 31.62C94.9536 31.1205 95.2993 30.5235 95.5018 29.8728C95.7043 29.2221 95.7583 28.5343 95.66 27.86C95.654 27.3596 95.5369 26.8669 95.3173 26.4172C95.0977 25.9676 94.7809 25.5723 94.39 25.26C93.06 24.31 91.13 24.8 89.27 25.26C87.5964 25.4732 85.8962 25.2847 84.31 24.71L85.31 22.71C86.9914 22.3159 88.5063 21.4028 89.64 20.1V22.15L94.55 21.03V15.03C95.9 12.27 97.09 8.88 95.39 7.85L95.31 7.77H95.1C92.96 7.52 90.95 6.19 88.63 4.64C87.54 3.92 86.41 3.17 85.16 2.45C81.36 0.280001 75.68 1.79 74.16 2.25L68.71 0L69.31 4.14C68.43 4.82 64.77 6.92 52.41 7.73C44.12 8.28 36.48 13.99 32.96 22.27C31.3641 25.7862 30.7618 29.6723 31.2184 33.5066C31.675 37.3409 33.1731 40.9769 35.55 44.02C32.091 44.1909 28.625 44.1576 25.17 43.92C16.75 43.32 4.05 48.5 0.46 53.92L0 54.63L0.62 55.21C2.91 57.38 9.08 59.14 15.69 59.14ZM75.13 54.34C75.8081 54.5432 76.4243 54.9134 76.9223 55.4166C77.4202 55.9197 77.7839 56.5398 77.98 57.22H66.51C66.3433 56.1678 65.8662 55.1894 65.14 54.41L65.06 54.34H75.13ZM66.47 52.48L64.31 53.73C63.6009 53.2288 62.8036 52.8658 61.96 52.66C65.7055 50.3403 69.0156 47.3823 71.74 43.92C71.96 46.02 71.42 49.55 66.47 52.47V52.48ZM89.78 27.18C91.07 26.86 92.68 26.46 93.26 26.87C93.407 27.0221 93.5218 27.2024 93.5974 27.4001C93.6731 27.5977 93.7079 27.8086 93.7 28.02C93.7686 28.4074 93.7494 28.8053 93.6438 29.1843C93.5383 29.5633 93.349 29.9138 93.09 30.21C92.28 31.04 90.6 31.46 88.21 31.44C88.3147 31.0247 88.3213 30.5908 88.2293 30.1725C88.1373 29.7542 87.9493 29.363 87.68 29.03C86.85 28.08 85.24 27.79 82.61 28.1L83.43 26.52C84.81 26.92 87.61 27.71 89.78 27.17V27.18ZM34.78 23.07C38.01 15.47 44.98 10.24 52.52 9.74C62.86 9.06 67.52 7.49 69.61 6.33L70.02 8.92L72.02 8.63L71.22 3.22L75.4 4.92L75.83 3.92C77.83 3.43 81.64 2.8 84.15 4.23C85.34 4.91 86.44 5.64 87.5 6.35C89.77 7.86 91.93 9.3 94.34 9.73C94.0827 11.3838 93.5414 12.9806 92.74 14.45L92.63 14.66V19.52L91.72 19.73V11.23L89.79 16.32C89.79 16.32 88.27 20.32 84.57 20.84C80.71 21.43 79.2 20.91 79.2 20.91L78.43 22.76C79.3463 23.0549 80.3087 23.1803 81.27 23.13C81.76 23.13 82.32 23.13 82.95 23.05L80.13 28.47C72.31 29.67 62.31 24.44 62.22 24.39L61.31 26.16C61.76 26.4 72.43 32 81.02 30.36C85.25 29.55 86.07 30.21 86.2 30.36C86.48 30.68 86.15 31.69 85.9 32.42C85.83 32.64 85.75 32.86 85.69 33.08C84.97 35.54 82.34 35.2 80.83 34.78L80.45 34.67L80.1 34.86C78.1 35.93 64.34 35.68 62.51 33.73L61.05 35.1C62.64 36.78 68.56 37.47 73.61 37.47H73.99C71.7 41.01 65.47 49.7 57.99 52.35H55.68C58.11 50.42 60.74 46.88 60.1 40.75C59.73 37.21 58.44 34.6 56.27 32.99C54.1791 31.5622 51.6179 30.9962 49.12 31.41L49.51 33.41C51.4554 33.1021 53.4452 33.5415 55.08 34.64C56.78 35.9 57.8 38.04 58.08 41C59.08 50.19 51.71 52.41 51.4 52.5L43.91 54.61L58.83 54.33C61.05 54.33 62.67 54.77 63.63 55.76C64.0222 56.1697 64.3043 56.6719 64.45 57.22H40.21L43.31 49.39L42.9 48.92C42.9 48.92 40.39 46.27 37.52 43.28C32.81 37.71 31.8 30.15 34.82 23.06L34.78 23.07ZM25.04 45.92C29.1239 46.236 33.2261 46.236 37.31 45.92L39.52 48.24C37.59 48.35 34.85 49.13 31.52 51.74L31.41 51.84C24.03 59.56 7.41 57.24 2.73 54.32C6.56 49.69 17.73 45.37 25.04 45.92Z" fill="#EC7210"/>
</svg>
