<svg data-v-0dd9719b="" version="1.0" xmlns="http://www.w3.org/2000/svg" xmlns:xlink="http://www.w3.org/1999/xlink" width="100%" height="100%" viewBox="0 0 340.000000 250.000000" preserveAspectRatio="xMidYMid meet" color-interpolation-filters="sRGB" style="margin: auto;"> <rect data-v-0dd9719b="" x="0" y="0" width="100%" height="100%" fill="#140d0d" fill-opacity="1" class="background"></rect> <rect data-v-0dd9719b="" x="0" y="0" width="100%" height="100%" fill="url(#watermark)" fill-opacity="1" class="watermarklayer"></rect> <g data-v-0dd9719b="" fill="#ec7210" class="icon-text-wrapper icon-svg-group iconsvg" transform="translate(73.91990661621094,91.57427978515625)"><g class="iconsvg-imagesvg" transform="translate(0,14.966794967651367)"><g><rect fill="#ec7210" fill-opacity="0" stroke-width="2" x="0" y="0" width="60" height="36.91785162715431" class="image-rect"></rect> <svg filter="url(#colors3207390061)" x="0" y="0" width="60" height="36.91785162715431" filtersec="colorsf3382347417" class="image-svg-svg primary" style="overflow: visible;"><svg xmlns="http://www.w3.org/2000/svg" data-name="Layer 1" viewBox="0.6899999380111694 19.079999923706055 96.23002624511719 59.209999084472656" x="0px" y="0px"><title>icons_animals_4</title><path d="M16.38,78.22c6.26,0,12.93-1.57,17.08-5.87,3.95-3.07,6.74-3.2,8.07-3l-3.58,8.94H81l-.14-1.12a6.31,6.31,0,0,0-4.78-5.74l-5.36,0A9.87,9.87,0,0,0,74,61c1.51-2,2.56-3.71,3-4.5a18.34,18.34,0,0,0,4.23-.6c4.15,1,6.33-.93,7-3.15l.07-.21.71,0c2.94,0,5-.61,6.17-1.84a4.56,4.56,0,0,0,1.17-3.76,3.38,3.38,0,0,0-1.27-2.6c-1.33-.95-3.26-.46-5.12,0A10.62,10.62,0,0,1,85,43.79l1-2a8.23,8.23,0,0,0,4.33-2.61v2.05l4.91-1.12v-6c1.35-2.76,2.54-6.15.84-7.18L96,26.85l-.21,0c-2.14-.25-4.15-1.58-6.47-3.13-1.09-.72-2.22-1.47-3.47-2.19-3.8-2.17-9.48-.66-11-.2L69.4,19.08,70,23.22c-.88.68-4.54,2.78-16.9,3.59-8.29.55-15.93,6.26-19.45,14.54a21.14,21.14,0,0,0,2.59,21.75A88,88,0,0,1,25.86,63C17.44,62.4,4.74,67.58,1.15,73l-.46.71.62.58C3.6,76.46,9.77,78.22,16.38,78.22Zm59.44-4.8a4.23,4.23,0,0,1,2.85,2.88H67.2a5.35,5.35,0,0,0-1.37-2.81l-.08-.07Zm-8.66-1.86L65,72.81a6.91,6.91,0,0,0-2.35-1.07A37.71,37.71,0,0,0,72.43,63C72.65,65.1,72.11,68.63,67.16,71.55Zm23.31-25.3c1.29-.32,2.9-.72,3.48-.31a1.57,1.57,0,0,1,.44,1.15,2.63,2.63,0,0,1-.61,2.19c-.81.83-2.49,1.25-4.88,1.23a2.76,2.76,0,0,0-.53-2.41c-.83-.95-2.44-1.24-5.07-.93l.82-1.58C85.5,46,88.3,46.79,90.47,46.25Zm-55-4.11c3.23-7.6,10.2-12.83,17.74-13.33,10.34-.68,15-2.25,17.09-3.41L70.71,28l2-.29-.8-5.41L76.09,24l.43-1c2-.49,5.81-1.12,8.32.31,1.19.68,2.29,1.41,3.35,2.12,2.27,1.51,4.43,2.95,6.84,3.38a14.52,14.52,0,0,1-1.6,4.72l-.11.21v4.86l-.91.21v-8.5L90.48,35.4s-1.52,4-5.22,4.52c-3.86.59-5.37.07-5.37.07l-.77,1.85a7.92,7.92,0,0,0,2.84.37c.49,0,1.05,0,1.68-.08l-2.82,5.42C73,48.75,63,43.52,62.91,43.47L62,45.24c.45.24,11.12,5.84,19.71,4.2,4.23-.81,5.05-.15,5.18,0,.28.32-.05,1.33-.3,2.06-.07.22-.15.44-.21.66-.72,2.46-3.35,2.12-4.86,1.7l-.38-.11-.35.19c-2,1.07-15.76.82-17.59-1.13l-1.46,1.37c1.59,1.68,7.51,2.37,12.56,2.37h.38c-2.29,3.54-8.52,12.23-16,14.88l-2.31,0c2.43-1.93,5.06-5.47,4.42-11.6-.37-3.54-1.66-6.15-3.83-7.76a9.83,9.83,0,0,0-7.15-1.58l.39,2a7.8,7.8,0,0,1,5.57,1.23c1.7,1.26,2.72,3.4,3,6.36,1,9.19-6.37,11.41-6.68,11.5l-7.49,2.11,14.92-.28c2.22,0,3.84.44,4.8,1.43a3.36,3.36,0,0,1,.82,1.46H40.9L44,68.47,43.59,68s-2.51-2.65-5.38-5.64C33.5,56.79,32.49,49.23,35.51,42.14ZM25.73,65A79.52,79.52,0,0,0,38,65l2.21,2.32c-1.93.11-4.67.89-8,3.5l-.11.1c-7.38,7.72-24,5.4-28.68,2.48C7.25,68.77,18.42,64.45,25.73,65Z"></path><circle cx="81.49" cy="27.82" r="1.5"></circle></svg></svg> <defs><filter id="colors3207390061"><feColorMatrix type="matrix" values="0 0 0 0 0.921875  0 0 0 0 0.4453125  0 0 0 0 0.0625  0 0 0 1 0" class="icon-fecolormatrix"></feColorMatrix></filter> <filter id="colorsf3382347417"><feColorMatrix type="matrix" values="0 0 0 0 0.99609375  0 0 0 0 0.99609375  0 0 0 0 0.99609375  0 0 0 1 0" class="icon-fecolormatrix"></feColorMatrix></filter> <filter id="colorsb6608556125"><feColorMatrix type="matrix" values="0 0 0 0 0  0 0 0 0 0  0 0 0 0 0  0 0 0 1 0" class="icon-fecolormatrix"></feColorMatrix></filter></defs></g></g> <g transform="translate(68,0)"><g data-gra="path-name" fill-rule="" class="tp-name iconsvg-namesvg"><g transform="scale(1)"><g><path d="M16.77 0L0 0 7.89-37.1 23.6-37.1Q27.23-37.1 29.94-36.37 32.66-35.64 34.44-33.95 36.22-32.25 37.13-29.51 38.04-26.76 38.04-22.79L38.04-22.79Q38.04-18.52 36.96-14.43 35.87-10.34 33.36-7.13 30.85-3.91 26.79-1.96 22.73 0 16.77 0L16.77 0ZM13.5-4.09L16.01-4.09Q17.94-4.09 19.43-5.7 20.92-7.3 22-9.79 23.08-12.27 23.81-15.28 24.54-18.29 24.98-21.09 25.42-23.9 25.62-26.12 25.82-28.34 25.82-29.27L25.82-29.27Q25.82-31.08 25.09-32.11 24.36-33.13 22.55-33.13L22.55-33.13 19.75-33.13 13.5-4.09ZM66.49-37.1L70.52 0 56.85 0 56.03-9.29 45.22-9.29 41.07 0 35.41 0 52.64-37.1 66.49-37.1ZM54.28-29.45L47.15-13.56 55.62-13.56 54.28-29.45ZM124.16-37.1L116.21 0 103.24 0 108.62-25.24 94.77 0 86.82 0 84.19-26.12 78.58 0 73.33 0 81.21-37.1 96.11-37.1 97.92-16.18 109.14-37.1 124.16-37.1Z" transform="translate(0, 37.099998474121094)"></path></g> <!----> <!----> <!----> <!----> <!----> <!----> <g data-gra="path-name-1" fill="#f0c244" transform="translate(0,40.099998474121094)"><g transform="scale(0.98532)"><path d="M23.29-18.76L16.39-18.76Q16.51-19.38 16.51-20.46L16.51-20.46Q16.51-21.08 16.43-21.69 16.34-22.29 16.14-22.77 15.93-23.25 15.51-23.52 15.1-23.79 14.43-23.79L14.43-23.79Q13.68-23.79 13.06-23.45 12.43-23.12 11.96-22.6 11.48-22.08 11.21-21.4 10.94-20.71 10.94-19.96L10.94-19.96Q10.94-18.88 11.5-18.3 12.06-17.72 12.97-17.34 13.89-16.97 15.05-16.72 16.22-16.47 17.47-16.14L17.47-16.14Q18.51-15.84 19.55-15.39 20.59-14.93 21.4-14.16 22.21-13.39 22.71-12.16 23.21-10.94 23.21-9.11L23.21-9.11Q23.21-6.49 22.17-4.7 21.13-2.91 19.3-1.79 17.47-0.67 14.95-0.17 12.43 0.33 9.48 0.33L9.48 0.33Q6.49 0.33 4.6-0.06 2.7-0.46 1.62-0.91L1.62-0.91Q0.33-1.46-0.29-2.16L-0.29-2.16 1.12-7.86 8.44-7.86Q8.4-7.49 8.36-6.84 8.32-6.2 8.32-5.82L8.32-5.82Q8.32-5.32 8.44-4.78 8.57-4.24 8.84-3.78 9.11-3.33 9.61-3.04 10.11-2.74 10.85-2.74L10.85-2.74Q11.69-2.74 12.33-3.12 12.97-3.49 13.41-4.05 13.85-4.62 14.08-5.3 14.31-5.99 14.31-6.65L14.31-6.65Q14.31-7.57 13.87-8.19 13.43-8.82 12.68-9.25 11.94-9.69 10.96-10 9.98-10.31 8.94-10.65L8.94-10.65Q7.94-10.94 6.84-11.35 5.74-11.77 4.82-12.52 3.91-13.27 3.31-14.41 2.7-15.55 2.7-17.34L2.7-17.34Q2.7-20 4.05-21.81 5.41-23.62 7.46-24.74 9.52-25.87 11.98-26.34 14.43-26.82 16.63-26.82L16.63-26.82Q19.55-26.82 21.65-26.14 23.75-25.45 24.83-24.54L24.83-24.54 23.29-18.76ZM50.03-26.41L49.32-23.25 42.63-23.25 37.68 0 28.69 0 33.64-23.25 27.03-23.25 27.78-26.41 50.03-26.41ZM61.84-26.41L58.18-9.44Q57.97-8.53 57.85-7.86 57.72-7.19 57.72-6.61L57.72-6.61Q57.72-5.16 58.74-4.28 59.76-3.41 61.76-3.41L61.76-3.41Q63.21-3.41 64.15-3.91 65.08-4.41 65.69-5.24 66.29-6.07 66.64-7.15 67-8.23 67.25-9.44L67.25-9.44 70.78-26.41 74.56-26.41 70.95-9.36Q70.53-7.36 69.74-5.61 68.95-3.87 67.47-2.54 66-1.21 63.67-0.44 61.34 0.33 57.89 0.33L57.89 0.33Q53.11 0.33 50.82-1.23 48.53-2.79 48.53-6.03L48.53-6.03Q48.53-7.49 48.91-9.73 49.28-11.98 49.86-14.6L49.86-14.6 52.4-26.41 61.84-26.41ZM85.21 0L73.28 0 78.89-26.41 90.08-26.41Q92.65-26.41 94.59-25.89 96.52-25.37 97.79-24.16 99.06-22.96 99.7-21 100.35-19.05 100.35-16.22L100.35-16.22Q100.35-13.18 99.58-10.27 98.81-7.36 97.02-5.07 95.23-2.79 92.34-1.39 89.45 0 85.21 0L85.21 0ZM82.88-2.91L84.67-2.91Q86.04-2.91 87.1-4.05 88.16-5.2 88.93-6.97 89.7-8.73 90.22-10.87 90.74-13.02 91.05-15.01 91.37-17.01 91.51-18.59 91.66-20.17 91.66-20.83L91.66-20.83Q91.66-22.12 91.14-22.85 90.62-23.58 89.33-23.58L89.33-23.58 87.33-23.58 82.88-2.91ZM125.72-26.41L115.11-9.98 112.99 0 103.97 0 106.25-10.69 102.18-26.41 112.16-26.41 114.99-15.97 121.22-26.41 125.72-26.41Z" transform="translate(0.2900000214576721, 26.81999969482422)"></path></g></g></g></g> <!----></g></g><defs v-gra="od"></defs></svg>