<svg width="125" height="67" viewBox="0 0 125 67" fill="none" xmlns="http://www.w3.org/2000/svg">
<path d="M16.77 37.1H0L7.89 0H23.6C26.02 0 28.1333 0.243333 29.94 0.73C31.7533 1.21667 33.2533 2.02333 34.44 3.15C35.6267 4.28333 36.5233 5.76333 37.13 7.59C37.7367 9.42333 38.04 11.6633 38.04 14.31C38.04 17.1567 37.68 19.9433 36.96 22.67C36.2333 25.3967 35.0333 27.83 33.36 29.97C31.6867 32.1167 29.4967 33.84 26.79 35.14C24.0833 36.4467 20.7433 37.1 16.77 37.1ZM13.5 33.01H16.01C17.2967 33.01 18.4367 32.4733 19.43 31.4C20.4233 30.3333 21.28 28.97 22 27.31C22.72 25.6567 23.3233 23.8267 23.81 21.82C24.2967 19.8133 24.6867 17.8767 24.98 16.01C25.2733 14.1367 25.4867 12.46 25.62 10.98C25.7533 9.5 25.82 8.45 25.82 7.83C25.82 6.62333 25.5767 5.67666 25.09 4.99C24.6033 4.31 23.7567 3.97 22.55 3.97H19.75L13.5 33.01ZM66.49 0L70.52 37.1H56.85L56.03 27.81H45.22L41.07 37.1H35.41L52.64 0H66.49ZM54.28 7.65L47.15 23.54H55.62L54.28 7.65ZM124.16 0L116.21 37.1H103.24L108.62 11.86L94.77 37.1H86.82L84.19 10.98L78.58 37.1H73.33L81.21 0H96.11L97.92 20.92L109.14 0H124.16Z" fill="#EC7210"/>
<path d="M23.2338 48.0418H16.4351C16.514 47.6345 16.5534 47.0762 16.5534 46.3667C16.5534 45.9595 16.5271 45.5555 16.4746 45.1548C16.4154 44.7607 16.3202 44.4059 16.1888 44.0906C16.0509 43.7753 15.8439 43.529 15.5681 43.3517C15.2987 43.1743 14.944 43.0856 14.5039 43.0856C14.0113 43.0856 13.5613 43.1973 13.154 43.4206C12.7402 43.6374 12.3789 43.9166 12.0702 44.2581C11.7549 44.5997 11.5085 44.9939 11.3312 45.4405C11.1538 45.8938 11.0651 46.3667 11.0651 46.8594C11.0651 47.5688 11.2491 48.114 11.6169 48.495C11.9848 48.876 12.4676 49.1913 13.0653 49.4409C13.6697 49.684 14.3528 49.8876 15.1148 50.0518C15.8834 50.2161 16.6782 50.4065 17.4993 50.6233C18.1824 50.8204 18.8656 51.0667 19.5487 51.3623C20.2319 51.6645 20.8395 52.0685 21.3716 52.5742C21.9037 53.08 22.3339 53.7369 22.6624 54.5449C22.9908 55.3463 23.155 56.348 23.155 57.5501C23.155 59.2711 22.8134 60.7196 22.1303 61.8954C21.4471 63.0712 20.5045 64.027 19.3024 64.7627C18.1003 65.4984 16.6716 66.0304 15.0163 66.3589C13.3609 66.6873 11.5644 66.8515 9.62658 66.8515C7.6625 66.8515 6.05972 66.7234 4.81821 66.4673C3.57014 66.2045 2.59139 65.9253 1.88196 65.6297C1.03459 65.2685 0.407266 64.8579 0 64.3981L1.3893 58.7818H8.60184C8.57557 59.0248 8.54929 59.3598 8.52302 59.7868C8.49674 60.2072 8.4836 60.5422 8.4836 60.7918C8.4836 61.1203 8.52302 61.4618 8.60184 61.8166C8.68724 62.1713 8.81861 62.4997 8.99597 62.8019C9.17333 63.0975 9.42623 63.3405 9.75467 63.531C10.0831 63.7281 10.4904 63.8266 10.9765 63.8266C11.5282 63.8266 12.0143 63.7018 12.4347 63.4522C12.8551 63.2091 13.2099 62.9037 13.4989 62.5358C13.7879 62.1614 14.008 61.7509 14.159 61.3042C14.3101 60.8509 14.3857 60.4075 14.3857 59.974C14.3857 59.3697 14.2412 58.8639 13.9521 58.4566C13.6631 58.0428 13.2723 57.6946 12.7796 57.4122C12.2935 57.1231 11.7286 56.8768 11.0848 56.6732C10.4411 56.4695 9.77766 56.2561 9.0945 56.0327C8.43762 55.8422 7.7479 55.6123 7.02533 55.343C6.30276 55.0671 5.63931 54.6828 5.03499 54.1902C4.43722 53.6975 3.94128 53.0768 3.54715 52.3279C3.14646 51.5791 2.94611 50.6167 2.94611 49.4409C2.94611 47.6936 3.3895 46.2255 4.27629 45.0366C5.16965 43.8476 6.28963 42.8853 7.63623 42.1496C8.9894 41.4073 10.474 40.8818 12.0899 40.5731C13.6992 40.2577 15.2265 40.1001 16.6716 40.1001C18.5897 40.1001 20.2385 40.3234 21.6179 40.7701C22.9974 41.2234 24.0418 41.7489 24.7512 42.3466L23.2338 48.0418ZM49.5813 40.5041L48.8817 43.6177H42.2899L37.4126 66.5264H28.5546L33.4319 43.6177H26.9189L27.6579 40.5041H49.5813ZM61.2179 40.5041L57.6117 57.225C57.4737 57.8227 57.3653 58.3417 57.2865 58.7818C57.2011 59.2219 57.1584 59.6324 57.1584 60.0134C57.1584 60.9659 57.4934 61.7312 58.1634 62.3092C58.8335 62.8807 59.8253 63.1664 61.1391 63.1664C62.0916 63.1664 62.8766 63.0022 63.494 62.6738C64.1049 62.3453 64.6107 61.9085 65.0114 61.3633C65.4055 60.8181 65.7176 60.1908 65.9475 59.4813C66.1839 58.7719 66.3843 58.0198 66.5485 57.225L70.0267 40.5041H73.7512L70.1942 57.3038C69.9183 58.6175 69.5209 59.8492 69.002 60.9987C68.483 62.1417 67.7375 63.15 66.7653 64.0237C65.7997 64.8973 64.5516 65.587 63.0211 66.0928C61.4905 66.5986 59.5922 66.8515 57.3259 66.8515C54.186 66.8515 51.864 66.3392 50.3597 65.3144C48.8554 64.2897 48.1033 62.7132 48.1033 60.5849C48.1033 59.6259 48.2281 58.4106 48.4777 56.9392C48.7208 55.4612 49.0328 53.8617 49.4138 52.1407L51.9165 40.5041H61.2179ZM84.2449 66.5264H72.49L78.0176 40.5041H89.0434C90.7316 40.5041 92.2128 40.6749 93.4872 41.0164C94.7549 41.358 95.8059 41.9262 96.6402 42.721C97.4744 43.5093 98.1017 44.5472 98.5221 45.8347C98.9491 47.1156 99.1626 48.6855 99.1626 50.5445C99.1626 52.5414 98.9097 54.4956 98.4039 56.4071C97.8981 58.3187 97.0573 60.0266 95.8815 61.5308C94.7057 63.0285 93.1686 64.2372 91.2702 65.1568C89.3718 66.0698 87.03 66.5264 84.2449 66.5264ZM81.9491 63.6591H83.7128C84.6127 63.6591 85.4108 63.2847 86.1071 62.5358C86.8034 61.7804 87.4045 60.8214 87.9102 59.6587C88.416 58.5026 88.8397 57.2217 89.1813 55.816C89.5229 54.4037 89.7955 53.0439 89.9991 51.7367C90.2093 50.423 90.3604 49.2472 90.4524 48.2093C90.5509 47.1714 90.6002 46.4357 90.6002 46.0022C90.6002 45.1548 90.4294 44.4913 90.0878 44.0118C89.7462 43.5323 89.1518 43.2925 88.3044 43.2925H86.3337L81.9491 63.6591ZM124.16 40.5041L113.706 56.6929L111.617 66.5264H102.729L104.976 55.9933L100.966 40.5041H110.799L113.588 50.7908L119.726 40.5041H124.16Z" fill="#F0C244"/>
</svg>
